<svg id="Capa_1" enable-background="new 0 0 512 512" height="512" viewBox="0 0 512 512" width="512" xmlns="http://www.w3.org/2000/svg"><g><g><path d="m374.498 88.859h-305.998c-9.389 0-17 7.611-17 17v389.141c0 9.389 7.611 17 17 17h305.998c9.389 0 17-7.611 17-17v-389.141c0-9.389-7.611-17-17-17z" fill="#fceed9"/></g><g><path d="m374.482 88.859h-26.739v362.371c0 9.397-7.618 17.016-17.016 17.016h-279.227v26.739c0 9.397 7.618 17.016 17.016 17.016h305.967c9.397 0 17.016-7.618 17.016-17.016v-389.11c-.001-9.398-7.619-17.016-17.017-17.016z" fill="#fad59a"/></g><g><path d="m260.853 68.625h-78.708c-4.146 0-7.507-3.361-7.507-7.507v-34.24c0-14.821 12.057-26.878 26.878-26.878h39.965c14.821 0 26.879 12.057 26.879 26.878v34.24c0 4.146-3.361 7.507-7.507 7.507zm-71.201-15.013h63.695v-26.734c0-6.542-5.323-11.864-11.865-11.864h-39.965c-6.542 0-11.864 5.322-11.864 11.864v26.734z" fill="#7c8b96"/></g><g><path d="m457.668 462.528-18.042 18.042c-3.776 3.776-9.897 3.776-13.673 0l-74.858-74.858 31.715-31.715 74.858 74.858c3.776 3.776 3.776 9.898 0 13.673z" fill="#9d6b6b"/></g><g><path d="m457.662 448.849-74.852-74.852-13.184 13.184 61.668 61.668c3.779 3.779 3.779 9.906 0 13.686l-11.689 11.689 6.341 6.341c3.779 3.779 9.906 3.779 13.686 0l18.03-18.03c3.779-3.78 3.779-9.907 0-13.686z" fill="#785252"/></g><g><circle cx="315.596" cy="338.499" fill="#d8eafb" r="103.032"/></g><g><path d="m388.451 265.644c-7.132-7.132-15.052-12.993-23.476-17.596 21.369 39.104 15.508 89.129-17.596 122.233s-83.13 38.966-122.233 17.596c4.604 8.424 10.465 16.344 17.596 23.476 40.236 40.236 105.473 40.236 145.709 0s40.236-105.473 0-145.709z" fill="#b3d8fb"/></g><g><path d="m315.596 449.038c-29.526 0-57.285-11.498-78.163-32.376-43.099-43.099-43.099-113.226 0-156.325 20.878-20.878 48.637-32.376 78.163-32.376s57.285 11.498 78.162 32.376c43.099 43.099 43.099 113.226 0 156.325-20.877 20.877-48.635 32.376-78.162 32.376zm0-206.065c-25.516 0-49.504 9.936-67.547 27.979-37.245 37.245-37.245 97.848 0 135.093 18.042 18.042 42.031 27.979 67.547 27.979s49.504-9.936 67.546-27.979c37.245-37.245 37.245-97.847 0-135.093-18.042-18.042-42.03-27.979-67.546-27.979z" fill="#785252"/></g><g><path d="m302.427 104.127h-161.857c-2.928 0-5.301-2.373-5.301-5.301v-25.28c0-16.693 13.532-30.225 30.225-30.225h112.011c16.693 0 30.225 13.532 30.225 30.225v25.28c-.001 2.927-2.375 5.301-5.303 5.301z" fill="#7c8b96"/></g><g><path d="m284.584 44.169c.549 2.28.848 4.659.848 7.108v25.247c0 2.931-2.376 5.306-5.306 5.306h-144.857v16.99c0 2.93 2.376 5.306 5.306 5.306h161.847c2.931 0 5.306-2.376 5.306-5.306v-25.247c.001-14.259-9.867-26.206-23.144-29.404z" fill="#465961"/></g><g><g><path d="m347.76 173.065h-63.629c-4.146 0-7.507-3.361-7.507-7.507s3.361-7.507 7.507-7.507h63.629c4.146 0 7.507 3.361 7.507 7.507s-3.361 7.507-7.507 7.507z" fill="#e7b467"/></g><g><path d="m237.513 173.065h-138.885c-4.146 0-7.507-3.361-7.507-7.507s3.361-7.507 7.507-7.507h138.885c4.146 0 7.507 3.361 7.507 7.507s-3.361 7.507-7.507 7.507z" fill="#e7b467"/></g><g><path d="m237.513 203.972h-138.885c-4.146 0-7.507-3.361-7.507-7.507s3.361-7.507 7.507-7.507h138.885c4.146 0 7.507 3.361 7.507 7.507s-3.361 7.507-7.507 7.507z" fill="#e7b467"/></g><g><path d="m178.978 236.357h-80.35c-4.146 0-7.507-3.361-7.507-7.507s3.361-7.507 7.507-7.507h80.35c4.146 0 7.507 3.361 7.507 7.507s-3.361 7.507-7.507 7.507z" fill="#e7b467"/></g><g><path d="m347.76 203.972h-63.629c-4.146 0-7.507-3.361-7.507-7.507s3.361-7.507 7.507-7.507h63.629c4.146 0 7.507 3.361 7.507 7.507s-3.361 7.507-7.507 7.507z" fill="#e7b467"/></g><g><path d="m124.901 375.01c-20.132 0-36.511-16.379-36.511-36.511s16.379-36.511 36.511-36.511c20.133 0 36.511 16.379 36.511 36.511.001 20.132-16.378 36.511-36.511 36.511zm0-58.009c-11.854 0-21.497 9.644-21.497 21.497 0 11.854 9.644 21.498 21.497 21.498 11.854 0 21.498-9.644 21.498-21.498 0-11.853-9.643-21.497-21.498-21.497z" fill="#e7b467"/></g><g><path d="m124.901 476.228c-20.132 0-36.511-16.379-36.511-36.511 0-20.133 16.379-36.511 36.511-36.511 20.133 0 36.511 16.379 36.511 36.511.001 20.133-16.378 36.511-36.511 36.511zm0-58.008c-11.854 0-21.497 9.644-21.497 21.498s9.644 21.497 21.497 21.497c11.854 0 21.498-9.644 21.498-21.497 0-11.854-9.643-21.498-21.498-21.498z" fill="#e7b467"/></g><g><path d="m221.499 447.224h-34.649c-4.146 0-7.507-3.361-7.507-7.507s3.361-7.507 7.507-7.507h34.648c4.146 0 7.507 3.361 7.507 7.507s-3.36 7.507-7.506 7.507z" fill="#e7b467"/></g></g></g></svg>