<svg id="flat" height="512" viewBox="0 0 512 512" width="512" xmlns="http://www.w3.org/2000/svg"><path d="m488 304v-96h-64l-15.26-36.8501 45.25-45.25976-67.88-67.88037-45.26 45.25-36.85-15.25977v-64h-96v64l-36.85 15.25977-45.26-45.25-67.88 67.88037 45.25 45.25976-15.26 36.8501h-64v96h64l15.26 36.8501-45.25 45.25976 67.88 67.88037 45.26-45.25 36.85 15.25977v64h96v-64l36.85-15.25977 45.26 45.25 67.88-67.88037-45.25-45.25976 15.26-36.8501zm-232 40a88 88 0 1 1 88-88 88 88 0 0 1 -88 88z" fill="#f6bb00"/><path d="m424 304-15.26 36.8501 45.25 45.25976-67.88 67.88037-45.26-45.25-36.85 15.25977v64h-96v-64l-36.85-15.25977-45.26 45.25-67.88-67.88037 45.25-45.25976-15.26-36.8501h-64v-48h67.05564a31.91639 31.91639 0 0 1 31.38827 25.7992 136.014 136.014 0 1 0 159.35527-159.3553 31.91638 31.91638 0 0 1 -25.79918-31.38826v-67.05564h48v64l36.85 15.25977 45.26-45.25 67.88 67.88037-45.25 45.25976 15.26 36.8501h64v96z" fill="#eda600"/><path d="m144 416v9.57781a26.94811 26.94811 0 0 0 12 22.42219 26.9481 26.9481 0 0 1 12 22.42218v17.57782h-144v-17.57781a26.9481 26.9481 0 0 1 12-22.42219 26.9481 26.9481 0 0 0 12-22.42218v-9.57782z" fill="#3b57c4"/><path d="m136 416a95.26659 95.26659 0 0 1 -16-52.84436v-19.15564h-48v19.15562a95.26659 95.26659 0 0 1 -16 52.84438z" fill="#4976f2"/><path d="m56 344h80v-16l-35.817-23.878h-8.366l-35.817 23.878z" fill="#548aff"/><circle cx="96" cy="280" fill="#7dafff" r="32"/><path d="m184 416-16-40v-96a40 40 0 0 1 40-40l.41054-1.23162a33.29818 33.29818 0 0 1 31.58946-22.76838v24l40 40v24h-62l54 48v64z" fill="#548aff"/><path d="m272 416v9.57781a26.94811 26.94811 0 0 0 12 22.42219 26.9481 26.9481 0 0 1 12 22.42218v17.57782h-136v-17.57781a26.9481 26.9481 0 0 1 12-22.42219 26.9481 26.9481 0 0 0 12-22.42218v-9.57782z" fill="#4976f2"/></svg>